<?xml version="1.0" standalone="no"?>
<!DOCTYPE svg PUBLIC "-//W3C//DTD SVG 20010904//EN"
 "http://www.w3.org/TR/2001/REC-SVG-20010904/DTD/svg10.dtd">
<svg version="1.0" xmlns="http://www.w3.org/2000/svg"
 width="1024.000000pt" height="1024.000000pt" viewBox="0 0 1024.000000 1024.000000"
 preserveAspectRatio="xMidYMid meet">
<metadata>
Created by potrace 1.14, written by Peter Selinger 2001-2017
</metadata>
<g transform="translate(0.000000,1024.000000) scale(0.100000,-0.100000)"
fill="#000000" stroke="none">
<path d="M4815 8349 c-201 -26 -440 -75 -600 -125 -540 -168 -1006 -436 -1379
-794 -509 -490 -837 -1078 -981 -1760 -75 -358 -85 -816 -25 -1166 59 -339
139 -599 274 -894 228 -495 602 -944 1056 -1266 234 -166 622 -363 885 -450
395 -130 720 -184 1105 -184 369 0 684 51 1041 170 275 92 487 190 739 342
248 152 378 255 611 487 500 500 791 1090 910 1846 62 395 44 822 -52 1215
-103 422 -276 803 -515 1135 -255 353 -507 606 -834 834 -486 339 -1009 540
-1580 605 -148 17 -534 20 -655 5z m670 -400 c450 -63 856 -216 1230 -464 389
-257 671 -534 908 -895 233 -355 382 -758 449 -1215 17 -120 17 -608 0 -730
-48 -329 -155 -665 -313 -975 -255 -505 -714 -960 -1249 -1239 -272 -142 -581
-247 -871 -296 -175 -29 -421 -52 -461 -42 -45 12 -48 38 -48 474 0 482 -5
458 97 468 208 19 408 61 573 121 109 39 282 124 385 189 259 163 464 377 612
639 88 156 172 404 205 611 16 103 16 377 -1 479 -22 134 -77 317 -136 450
l-56 127 26 72 c81 224 119 452 119 727 0 296 -30 440 -111 530 -56 63 -116
79 -223 61 -96 -15 -144 -33 -295 -106 -191 -92 -367 -215 -563 -392 l-63 -56
-52 16 c-100 31 -236 57 -359 68 -104 9 -126 14 -140 31 -17 19 -18 66 -18
670 0 440 3 656 11 669 23 43 81 44 344 8z m-1753 -935 c217 -69 465 -224 703
-441 l109 -100 61 19 c93 28 291 67 380 74 76 6 83 5 109 -18 22 -19 30 -35
33 -75 3 -28 0 -67 -6 -86 -15 -43 -39 -53 -163 -61 -192 -13 -436 -80 -608
-166 -138 -68 -277 -168 -394 -280 -240 -232 -385 -492 -448 -802 -30 -148
-32 -435 -5 -568 77 -365 282 -690 569 -898 46 -34 88 -69 94 -79 50 -82 5
-173 -87 -173 -41 0 -57 7 -135 63 -130 91 -325 290 -406 412 -179 272 -281
574 -295 870 -13 297 44 580 168 827 l51 104 -45 134 c-84 248 -114 476 -103
763 12 294 53 423 154 484 53 33 154 31 264 -3z m752 -1903 c95 -47 169 -144
183 -241 39 -254 -182 -450 -428 -381 -92 26 -195 131 -220 224 -17 64 -7 183
21 237 42 83 109 146 187 175 61 23 196 16 257 -14z m1530 17 c94 -27 162 -88
209 -188 26 -54 31 -77 31 -136 -1 -121 -67 -230 -176 -289 -46 -25 -66 -30
-151 -33 -89 -4 -101 -2 -151 22 -63 31 -140 109 -167 170 -77 174 21 393 201
450 56 18 150 20 204 4z m-677 -813 c31 -22 39 -69 17 -103 -10 -15 -56 -66
-104 -114 -119 -121 -121 -121 -257 15 -94 94 -103 106 -103 140 0 24 7 44 20
57 19 19 33 20 213 20 155 0 197 -3 214 -15z"/>
</g>
</svg>
